<mxfile host="Electron" modified="2024-02-11T18:33:53.055Z" agent="Mozilla/5.0 (X11; Linux x86_64) AppleWebKit/537.36 (KHTML, like Gecko) draw.io/23.0.2 Chrome/120.0.6099.109 Electron/28.1.0 Safari/537.36" etag="DKMVFSlDClEc5rJbKMUn" version="23.0.2" type="device">
  <diagram name="Page-1" id="54c02804-9d69-ba3f-8aca-1021b27b8050">
    <mxGraphModel dx="1290" dy="635" grid="1" gridSize="10" guides="1" tooltips="1" connect="1" arrows="1" fold="1" page="1" pageScale="1" pageWidth="1100" pageHeight="850" background="none" math="0" shadow="0">
      <root>
        <mxCell id="0" />
        <mxCell id="1" parent="0" />
        <mxCell id="7c3a617817c5cf35-11" value="&lt;h1&gt;&lt;div style=&quot;color: rgb(204, 204, 204); background-color: rgb(31, 31, 31); font-family: &amp;quot;Droid Sans Mono&amp;quot;, &amp;quot;monospace&amp;quot;, monospace; font-weight: normal; font-size: 12px; line-height: 16px;&quot;&gt;AvlTree&amp;lt;&lt;span style=&quot;color: #4ec9b0;&quot;&gt;Decimal&lt;/span&gt;, &lt;span style=&quot;color: #4ec9b0;&quot;&gt;Decimal&lt;/span&gt;&amp;gt;&lt;/div&gt;&lt;/h1&gt;&lt;div&gt;&lt;span style=&quot;background-color: initial;&quot;&gt;Albero che contiene la % di interesse (e le sue variazioni nel tempo) con la quale si ricompensano i fornitori di liquidità&lt;/span&gt;&lt;/div&gt;" style="text;html=1;spacing=5;spacingTop=-20;whiteSpace=wrap;overflow=hidden;strokeWidth=2;fillColor=none;gradientColor=none;fontSize=14;align=center;" parent="1" vertex="1">
          <mxGeometry x="20" y="20" width="170" height="160" as="geometry" />
        </mxCell>
        <mxCell id="AOj93E6qKk-X4wnYrxzE-2" value="&lt;h1 style=&quot;border-color: var(--border-color);&quot;&gt;&lt;div style=&quot;border-color: var(--border-color); color: rgb(204, 204, 204); background-color: rgb(31, 31, 31); font-family: &amp;quot;Droid Sans Mono&amp;quot;, &amp;quot;monospace&amp;quot;, monospace; font-weight: normal; font-size: 12px; line-height: 16px;&quot;&gt;AvlTree&amp;lt;Decimal,&amp;nbsp;&lt;/div&gt;&lt;div style=&quot;border-color: var(--border-color); color: rgb(204, 204, 204); background-color: rgb(31, 31, 31); font-family: &amp;quot;Droid Sans Mono&amp;quot;, &amp;quot;monospace&amp;quot;, monospace; font-weight: normal; font-size: 12px; line-height: 16px;&quot;&gt;&lt;span style=&quot;border-color: var(--border-color); color: rgb(78, 201, 176);&quot;&gt;Decimal&lt;/span&gt;&amp;gt;&lt;/div&gt;&lt;/h1&gt;&lt;h1&gt;&lt;div style=&quot;border-color: var(--border-color); font-size: 14px; font-weight: 400;&quot;&gt;&lt;span style=&quot;border-color: var(--border-color); background-color: initial;&quot;&gt;Albero che contiene la % di interesse (e le sue variazioni nel tempo) che viene addebitata a chi richiede&amp;nbsp; liquidità in prestito&lt;/span&gt;&lt;/div&gt;&lt;/h1&gt;" style="text;html=1;spacing=5;spacingTop=-20;whiteSpace=wrap;overflow=hidden;strokeWidth=2;fillColor=none;gradientColor=none;fontSize=14;align=center;" parent="1" vertex="1">
          <mxGeometry x="234" y="20" width="176" height="160" as="geometry" />
        </mxCell>
        <mxCell id="2gU1CMO9xjn-bq0Fzze3-7" value="Example&lt;br&gt;Epoch 1000 - Interest 3%&lt;br&gt;Epoch 1500 - Interest 4%&lt;br&gt;Epoch 9000 - Interest 5%&lt;br&gt;Epoch 14000 - Interest 4,5%" style="rounded=0;whiteSpace=wrap;html=1;" parent="1" vertex="1">
          <mxGeometry x="20" y="180" width="170" height="110" as="geometry" />
        </mxCell>
        <mxCell id="2gU1CMO9xjn-bq0Fzze3-8" value="Example&lt;br&gt;Epoch 1000 - Interest 7%&lt;br&gt;Epoch 1900 - Interest 8%&lt;br&gt;Epoch 9500 - Interest 9%&lt;br&gt;Epoch 12000 - Interest 8,5%" style="rounded=0;whiteSpace=wrap;html=1;" parent="1" vertex="1">
          <mxGeometry x="234" y="180" width="170" height="110" as="geometry" />
        </mxCell>
        <mxCell id="_WKDV6AGs2Sfbttmg6Ou-1" value="&lt;h1 style=&quot;border-color: var(--border-color);&quot;&gt;&lt;div style=&quot;border-color: var(--border-color); color: rgb(204, 204, 204); background-color: rgb(31, 31, 31); font-family: &amp;quot;Droid Sans Mono&amp;quot;, &amp;quot;monospace&amp;quot;, monospace; font-weight: normal; line-height: 16px;&quot;&gt;&lt;font style=&quot;font-size: 18px;&quot;&gt;Relevant data for borrowing&lt;/font&gt;&lt;/div&gt;&lt;/h1&gt;&lt;h1&gt;&lt;div style=&quot;border-color: var(--border-color); font-size: 14px; font-weight: 400;&quot;&gt;&lt;div style=&quot;color: rgb(204, 204, 204); background-color: rgb(31, 31, 31); font-family: &amp;quot;Droid Sans Mono&amp;quot;, &amp;quot;monospace&amp;quot;, monospace; font-size: 12px; line-height: 16px;&quot;&gt;&lt;div style=&quot;line-height: 16px;&quot;&gt;borrow_epoch_max_lenght&lt;/div&gt;&lt;/div&gt;&lt;/div&gt;&lt;div style=&quot;border-color: var(--border-color); font-size: 14px; font-weight: 400;&quot;&gt;&lt;span style=&quot;border-color: var(--border-color); background-color: initial;&quot;&gt;&lt;br&gt;&lt;/span&gt;&lt;/div&gt;&lt;div style=&quot;text-align: left; border-color: var(--border-color);&quot;&gt;&lt;span style=&quot;border-color: var(--border-color); background-color: initial;&quot;&gt;&lt;font style=&quot;font-size: 18px;&quot;&gt;maximum duration of the loan, expressed in number of epochs&lt;/font&gt;&lt;br&gt;&lt;/span&gt;&lt;/div&gt;&lt;/h1&gt;" style="text;html=1;spacing=5;spacingTop=-20;whiteSpace=wrap;overflow=hidden;strokeWidth=2;fillColor=none;gradientColor=none;fontSize=14;align=center;" vertex="1" parent="1">
          <mxGeometry x="750" y="20" width="310" height="220" as="geometry" />
        </mxCell>
        <mxCell id="_WKDV6AGs2Sfbttmg6Ou-2" value="&lt;h1 style=&quot;border-color: var(--border-color);&quot;&gt;&lt;div style=&quot;border-color: var(--border-color); color: rgb(204, 204, 204); background-color: rgb(31, 31, 31); font-family: &amp;quot;Droid Sans Mono&amp;quot;, &amp;quot;monospace&amp;quot;, monospace; font-weight: normal; font-size: 12px; line-height: 16px;&quot;&gt;max_percentage_allowed_for_account&lt;/div&gt;&lt;/h1&gt;&lt;h1&gt;&lt;div style=&quot;text-align: left; border-color: var(--border-color);&quot;&gt;&lt;span style=&quot;border-color: var(--border-color); background-color: initial;&quot;&gt;&lt;font style=&quot;font-size: 18px;&quot;&gt;maximum percentage that can be borrowed, expressed relative to the main container&lt;/font&gt;&lt;br&gt;&lt;/span&gt;&lt;/div&gt;&lt;/h1&gt;" style="text;html=1;spacing=5;spacingTop=-20;whiteSpace=wrap;overflow=hidden;strokeWidth=2;fillColor=none;gradientColor=none;fontSize=14;align=center;" vertex="1" parent="1">
          <mxGeometry x="750" y="250" width="310" height="180" as="geometry" />
        </mxCell>
        <mxCell id="_WKDV6AGs2Sfbttmg6Ou-3" value="&lt;h1 style=&quot;border-color: var(--border-color);&quot;&gt;&lt;div style=&quot;border-color: var(--border-color); color: rgb(204, 204, 204); background-color: rgb(31, 31, 31); font-family: &amp;quot;Droid Sans Mono&amp;quot;, &amp;quot;monospace&amp;quot;, monospace; font-weight: normal; font-size: 12px; line-height: 16px;&quot;&gt;max_borrowing_limit&lt;br&gt;&lt;/div&gt;&lt;/h1&gt;&lt;h1&gt;&lt;div style=&quot;text-align: left; border-color: var(--border-color);&quot;&gt;&lt;span style=&quot;border-color: var(--border-color); background-color: initial;&quot;&gt;&lt;font style=&quot;font-size: 18px;&quot;&gt;maximum limit of loans that can be disbursed, a limit that can be used in particular cases during the life of the contract&lt;/font&gt;&lt;br&gt;&lt;/span&gt;&lt;/div&gt;&lt;/h1&gt;" style="text;html=1;spacing=5;spacingTop=-20;whiteSpace=wrap;overflow=hidden;strokeWidth=2;fillColor=none;gradientColor=none;fontSize=14;align=center;" vertex="1" parent="1">
          <mxGeometry x="750" y="490" width="310" height="220" as="geometry" />
        </mxCell>
      </root>
    </mxGraphModel>
  </diagram>
</mxfile>
